HIERARCHY
ROOT Hips
{
	OFFSET 0.000000 0.000000 0.000000 
	CHANNELS 6 Xposition Yposition Zposition Zrotation Yrotation Xrotation
	JOINT LeftUpLeg
	{
		OFFSET 1.363060 -1.794630 0.839290 
		CHANNELS 3 Zrotation Yrotation Xrotation
		JOINT LeftLeg
		{
			OFFSET 2.448110 -6.726130 0.000000 
			CHANNELS 3 Zrotation Yrotation Xrotation
			JOINT LeftFoot
			{
				OFFSET 2.562200 -7.039590 0.000000 
				CHANNELS 3 Zrotation Yrotation Xrotation
				JOINT LeftToeBase
				{
					OFFSET 0.157640 -0.433110 2.322550 
					CHANNELS 3 Zrotation Yrotation Xrotation
					End Site
					{
						OFFSET 0.000000 0.000000 0.000000 
					}
				}
			}
		}
	}
	JOINT RightUpLeg
	{
		OFFSET -1.305520 -1.794630 0.839290 
		CHANNELS 3 Zrotation Yrotation Xrotation
		JOINT RightLeg
		{
			OFFSET -2.542530 -6.985550 0.000000 
			CHANNELS 3 Zrotation Yrotation Xrotation
			JOINT RightFoot
			{
				OFFSET -2.568260 -7.056230 0.000000 
				CHANNELS 3 Zrotation Yrotation Xrotation
				JOINT RightToeBase
				{
					OFFSET -0.164730 -0.452590 2.363150 
					CHANNELS 3 Zrotation Yrotation Xrotation
					End Site
					{
						OFFSET 0.000000 0.000000 0.000000 
					}
				}
			}
		}
	}
	JOINT Spine
	{
		OFFSET 0.028270 2.035590 -0.193380 
		CHANNELS 3 Zrotation Yrotation Xrotation
		JOINT Spine1
		{
			OFFSET 0.056720 2.048850 -0.042750 
			CHANNELS 3 Zrotation Yrotation Xrotation
			JOINT Neck1
			{
				OFFSET -0.054170 1.746240 0.172020 
				CHANNELS 3 Zrotation Yrotation Xrotation
				JOINT Head
				{
					OFFSET 0.104070 1.761360 -0.123970 
					CHANNELS 3 Zrotation Yrotation Xrotation
					End Site
					{
						OFFSET 0.000000 0.000000 0.000000 
					}
				}
			}
			JOINT LeftArm
			{
				OFFSET 3.362410 1.200890 -0.311210 
				CHANNELS 3 Zrotation Yrotation Xrotation
				JOINT LeftForeArm
				{
					OFFSET 4.983000 -0.000000 -0.000000 
					CHANNELS 3 Zrotation Yrotation Xrotation
					JOINT LeftHand
					{
						OFFSET 3.483560 -0.000000 -0.000000 
						CHANNELS 3 Zrotation Yrotation Xrotation
						JOINT LeftHandIndex1
						{
							OFFSET 0.715260 -0.000000 -0.000000 
							CHANNELS 3 Zrotation Yrotation Xrotation
							End Site
							{
								OFFSET 0.000000 0.000000 0.000000 
							}
						}
					}
				}
			}
			JOINT RightArm
			{
				OFFSET -3.136600 1.374050 -0.404650 
				CHANNELS 3 Zrotation Yrotation Xrotation
				JOINT RightForeArm
				{
					OFFSET -5.241900 -0.000000 -0.000000 
					CHANNELS 3 Zrotation Yrotation Xrotation
					JOINT RightHand
					{
						OFFSET -3.444170 -0.000000 -0.000000 
						CHANNELS 3 Zrotation Yrotation Xrotation
						JOINT RightHandIndex1
						{
							OFFSET -0.622530 -0.000000 -0.000000 
							CHANNELS 3 Zrotation Yrotation Xrotation
							End Site
							{
								OFFSET 0.000000 0.000000 0.000000 
							}
						}
					}
				}
			}
		}
	}
}
MOTION
Frames: 7
Frame Time: 0.041667
9.203020 17.899603 -32.949090 -8.981758 -52.466756 21.082987 -12.230381 -10.496213 -29.115015 5.069642 14.931777 43.982952 0.387427 1.267670 -7.233789 0.002800 -0.344100 -0.945400 8.852414 10.049414 -10.755977 -6.096314 -15.187854 46.052300 -0.559039 -2.975044 15.780673 -0.216700 -2.997000 8.270500 1.163286 -1.609387 -0.981569 9.469507 -0.754488 -2.523221 4.949785 7.818040 15.106170 5.371300 2.697700 8.586600 -89.331686 -8.443345 0.313529 14.400456 -24.776530 -2.968916 0.625417 -0.094802 5.583404 -7.125000 0.000000 0.000000 76.858125 -1.114906 13.159318 -23.530303 34.432484 -8.779583 0.255687 0.933312 -18.752265 7.125000 0.000000 0.000000 
9.152900 17.897288 -32.785243 -8.903893 -52.670745 21.039597 -12.710672 -10.579368 -28.536044 5.034873 14.893567 43.861547 0.584964 0.578699 -7.530674 0.074900 1.765300 4.857500 8.359221 10.447529 -11.259357 -6.437089 -15.461684 47.280116 -0.690041 -3.107078 17.335554 -0.268500 -3.333000 9.207300 1.001862 -1.322868 -0.884437 8.946682 -0.639751 -2.282913 5.310605 7.307225 14.508066 5.485200 2.550300 8.284200 -88.636379 -9.033315 1.082290 14.203317 -24.470930 -2.880134 0.628748 -0.096812 5.411271 -7.125000 0.000000 0.000000 77.581690 -1.120547 12.047088 -23.645987 34.571500 -8.860479 0.251321 0.940736 -18.650039 7.125000 0.000000 0.000000 
9.104692 17.892256 -32.625019 -8.512107 -52.858046 20.804959 -13.386852 -10.354037 -28.200083 4.994949 14.846348 43.716637 0.730732 0.007251 -7.449431 0.135700 2.373900 6.540200 7.647467 10.763008 -11.932037 -6.839259 -15.751707 48.612117 -0.756275 -4.067736 19.005729 -0.563900 -4.809700 13.366600 0.961722 -1.253089 -0.922039 9.058758 -0.592468 -2.382528 5.121768 7.336957 14.876680 5.281300 2.581500 8.631900 -88.416651 -9.022243 1.473754 14.243243 -24.524393 -2.890975 0.626022 -0.080598 5.318208 -7.125000 0.000000 0.000000 77.868758 -1.308130 11.675426 -23.780510 34.692640 -8.934643 0.252965 0.948298 -18.482469 7.125000 0.000000 0.000000 
9.055578 17.888834 -32.466003 -8.117649 -53.148649 20.562457 -14.105291 -9.957038 -27.891836 4.944201 14.789533 43.548435 0.678303 0.153968 -7.192687 0.008300 0.587000 1.613100 6.948757 11.195816 -12.709711 -7.280649 -16.061718 50.066736 -0.837931 -4.916513 20.515337 -0.703200 -5.359900 14.937900 0.905618 -1.073236 -0.946454 8.942282 -0.489498 -2.229391 3.706743 7.692969 18.051442 4.370900 2.582400 11.027500 -88.238809 -9.158051 1.526133 14.420821 -24.801395 -2.968547 0.625559 -0.073791 5.751525 -7.125000 0.000000 0.000000 78.187042 -1.377754 11.435954 -23.891989 34.748004 -8.968806 0.257782 0.963546 -18.390268 7.125000 0.000000 0.000000 
9.006967 17.889740 -32.310207 -7.817550 -53.451527 20.321060 -14.747523 -9.894523 -27.373008 4.882264 14.739722 43.347386 0.704454 0.051677 -7.174958 0.008000 0.578400 1.589400 6.413360 11.607461 -13.502323 -7.719507 -16.342108 51.555658 -1.008041 -4.909889 21.897829 -0.467000 -4.383100 12.157100 0.767086 -1.042106 -0.902973 8.947495 -0.483292 -2.533553 5.495835 7.079816 14.522243 5.406900 2.522100 8.389700 -87.890335 -9.118701 1.585740 14.616331 -25.058698 -3.048625 0.625604 -0.077719 6.209049 -7.125000 0.000000 0.000000 78.596994 -1.510596 11.041314 -23.942022 34.819476 -9.000352 0.264224 0.976736 -18.435202 7.125000 0.000000 0.000000 
8.962583 17.894370 -32.169306 -7.180375 -53.366006 20.030455 -15.391746 -10.334038 -26.972336 4.828026 14.680596 43.149131 0.810195 -0.316196 -7.406671 0.071000 1.719200 4.730100 5.796936 11.801610 -14.611444 -8.201633 -16.633116 53.130694 -1.076691 -5.320330 22.770930 -0.457000 -4.336500 12.025200 0.661877 -1.102128 -0.925614 8.823877 -0.505169 -2.549756 5.268634 6.943563 14.753548 5.211300 2.475300 8.689200 -87.383037 -9.388981 1.723721 14.684815 -25.157710 -3.078700 0.624703 -0.074479 6.355465 -7.125000 0.000000 0.000000 78.994371 -1.601935 10.857233 -24.050148 34.924120 -9.073883 0.262081 0.977157 -18.489638 7.125000 0.000000 0.000000 
8.913570 17.892156 -31.996804 -7.140920 -53.747884 19.956214 -15.961037 -10.312567 -26.339179 4.782378 14.636141 42.985245 0.955285 -0.763057 -7.940890 0.282800 3.420300 9.451200 5.340148 12.416638 -15.218760 -8.714217 -16.936829 54.708665 -0.930728 -6.670853 22.745197 -0.778200 -5.632200 15.720800 0.578972 -1.019749 -0.892376 8.626205 -0.471856 -2.535623 5.461043 6.902575 14.361212 5.298000 2.493000 8.417100 -87.045680 -9.443763 1.917279 14.742964 -25.239206 -3.104252 0.627316 -0.080357 6.239922 -7.125000 0.000000 0.000000 79.244055 -1.786501 10.806299 -24.107136 35.006146 -9.130083 0.261335 0.969660 -18.363756 7.125000 0.000000 0.000000 
